<svg xmlns="http://www.w3.org/2000/svg" viewBox="400 170 400 350" aria-hidden="true"><defs><linearGradient id="g" gradientUnits="userSpaceOnUse" x1="400" y1="170" x2="800" y2="520"><stop offset="0" stop-color="#f6d891"/><stop offset="1" stop-color="#d6a043"/></linearGradient></defs><g fill="none" stroke="url(#g)" stroke-width="9" stroke-linecap="round" stroke-linejoin="round"><g stroke-width="10.9756" transform="translate(565 335) scale(0.82) translate(-600 -345)"><path d="M600 205 C 650 230 690 235 715 235 C 715 360 680 430 600 480 C 520 430 485 360 485 235 C 510 235 550 230 600 205 Z"/><path d="M600 290 V 400 M545 345 H 655"/></g><g stroke-width="23.6842" transform="translate(760 455) scale(0.38) translate(-600 -345)"><circle cx="600" cy="235" r="35"/><path d="M600 272 V 380 M600 300 L 545 345 M600 300 L 655 345 M600 380 L 565 465 M600 380 L 635 465"/></g></g></svg>