<svg xmlns="http://www.w3.org/2000/svg" viewBox="400 170 400 350" aria-hidden="true"><defs><linearGradient id="g" gradientUnits="userSpaceOnUse" x1="400" y1="170" x2="800" y2="520"><stop offset="0" stop-color="#f6d891"/><stop offset="1" stop-color="#d6a043"/></linearGradient></defs><g fill="none" stroke="url(#g)" stroke-width="9" stroke-linecap="round" stroke-linejoin="round"><g stroke-width="10.9756" transform="translate(565 335) scale(0.82) translate(-600 -345)"><path d="M600 470 C 520 410 440 350 440 280 C 440 230 478 195 525 195 C 560 195 585 213 600 240 C 615 213 640 195 675 195 C 722 195 760 230 760 280 C 760 350 680 410 600 470 Z"/>
<path d="M430 330 H 520 L 545 290 L 575 380 L 605 300 L 625 340 H 770" stroke-width="8.53659"/></g><g stroke-width="23.6842" transform="translate(760 455) scale(0.38) translate(-600 -345)"><circle cx="600" cy="235" r="35"/><path d="M600 272 V 380 M600 300 L 545 345 M600 300 L 655 345 M600 380 L 565 465 M600 380 L 635 465"/></g></g></svg>