<svg xmlns="http://www.w3.org/2000/svg" viewBox="400 170 400 350" aria-hidden="true"><defs><linearGradient id="g" gradientUnits="userSpaceOnUse" x1="400" y1="170" x2="800" y2="520"><stop offset="0" stop-color="#f6d891"/><stop offset="1" stop-color="#d6a043"/></linearGradient></defs><g fill="none" stroke="url(#g)" stroke-width="9" stroke-linecap="round" stroke-linejoin="round"><g stroke-width="10.9756" transform="translate(565 335) scale(0.82) translate(-600 -345)"><path d="M520 210 L 520 300 C 520 330 545 345 575 340 L 590 337"/><path d="M680 210 L 680 300"/><path d="M610 353 L 625 356 C 655 360 680 375 680 405 L 680 490 M520 400 L 520 490"/><circle cx="600" cy="345" r="45"/><path d="M640 255 L 700 230 M650 285 L 712 280" stroke-width="7.31707" opacity=".9"/></g><g stroke-width="23.6842" transform="translate(760 455) scale(0.38) translate(-600 -345)"><circle cx="600" cy="235" r="35"/><path d="M600 272 V 380 M600 300 L 545 345 M600 300 L 655 345 M600 380 L 565 465 M600 380 L 635 465"/></g></g></svg>