<svg xmlns="http://www.w3.org/2000/svg" viewBox="400 170 400 350" aria-hidden="true"><defs><linearGradient id="g" gradientUnits="userSpaceOnUse" x1="400" y1="170" x2="800" y2="520"><stop offset="0" stop-color="#f6d891"/><stop offset="1" stop-color="#d6a043"/></linearGradient></defs><g fill="none" stroke="url(#g)" stroke-width="9" stroke-linecap="round" stroke-linejoin="round"><path d="M452 472 H748"/><path d="M548 472 V221 A16 16 0 0 1 564 205 H636 A16 16 0 0 1 652 221 V472"/><path d="M548 292 H486 A16 16 0 0 0 470 308 V472"/><path d="M652 292 H714 A16 16 0 0 1 730 308 V472"/><path d="M600 232 V282 M575 257 H625"/><path d="M577 472 V416 A23 23 0 0 1 623 416 V472"/><g stroke-width="7"><rect x="494.0" y="325.0" width="30" height="34" rx="6"/><rect x="494.0" y="393.0" width="30" height="34" rx="6"/><rect x="676.0" y="325.0" width="30" height="34" rx="6"/><rect x="676.0" y="393.0" width="30" height="34" rx="6"/><rect x="585.0" y="325.0" width="30" height="34" rx="6"/></g></g></svg>