<svg xmlns="http://www.w3.org/2000/svg" viewBox="400 170 400 350" aria-hidden="true"><defs><linearGradient id="g" gradientUnits="userSpaceOnUse" x1="400" y1="170" x2="800" y2="520"><stop offset="0" stop-color="#f6d891"/><stop offset="1" stop-color="#d6a043"/></linearGradient></defs><g fill="none" stroke="url(#g)" stroke-width="9" stroke-linecap="round" stroke-linejoin="round"><path d="M456 477 H744"/><path d="M548 477 V226 A16 16 0 0 1 564 210 H636 A16 16 0 0 1 652 226 V477"/><path d="M548 297 H486 A16 16 0 0 0 470 313 V477"/><path d="M652 297 H714 A16 16 0 0 1 730 313 V477"/><path d="M600 240 V294 M573 267 H627"/><path d="M576 477 V419 A24 24 0 0 1 624 419 V477"/><g stroke-width="7"><rect x="492" y="327" width="34" height="38" rx="7"/><rect x="492" y="395" width="34" height="38" rx="7"/><rect x="674" y="327" width="34" height="38" rx="7"/><rect x="674" y="395" width="34" height="38" rx="7"/></g></g></svg>
